<svg width="51" height="51" viewBox="0 0 51 51" fill="none" xmlns="http://www.w3.org/2000/svg">
<path d="M23.0223 7.48341C23.0223 6.25613 24.0172 5.26123 25.2444 5.26123C26.4717 5.26123 27.4666 6.25613 27.4666 7.48341V20.8165C27.4666 22.0437 26.4717 23.0386 25.2444 23.0386C24.0172 23.0386 23.0223 22.0437 23.0223 20.8165V7.48341Z" fill="#1B5FC4"/>
<path d="M23.0223 36.3717H27.4666V43.0391C27.4666 44.2663 26.4717 45.2612 25.2444 45.2612C24.0172 45.2612 23.0223 44.2663 23.0223 43.0391V36.3717Z" fill="#1B5FC4"/>
<path d="M9.68921 36.3717H14.1336V43.0382C14.1336 44.2655 13.1387 45.2604 11.9114 45.2604C10.6841 45.2604 9.68921 44.2655 9.68921 43.0382V36.3717Z" fill="#1B5FC4"/>
<path fill-rule="evenodd" clip-rule="evenodd" d="M18.5779 14.1499C13.6688 14.1499 9.68921 18.1295 9.68921 23.0386C9.68921 27.9477 13.6688 31.9273 18.5779 31.9273C23.487 31.9273 27.4666 27.9477 27.4666 23.0386C27.4666 18.1295 23.487 14.1499 18.5779 14.1499ZM18.5779 18.5943C16.1234 18.5943 14.1336 20.5841 14.1336 23.0386C14.1336 25.4932 16.1234 27.483 18.5779 27.483C21.0325 27.483 23.0223 25.4932 23.0223 23.0386C23.0223 20.5841 21.0325 18.5943 18.5779 18.5943Z" fill="#1B5FC4"/>
<path fill-rule="evenodd" clip-rule="evenodd" d="M31.911 14.1499C27.0019 14.1499 23.0223 18.1295 23.0223 23.0386C23.0223 27.9477 27.0019 31.9273 31.911 31.9273C36.8201 31.9273 40.7997 27.9477 40.7997 23.0386C40.7997 18.1295 36.8201 14.1499 31.911 14.1499ZM31.911 18.5943C29.4564 18.5943 27.4666 20.5841 27.4666 23.0386C27.4666 25.4932 29.4564 27.483 31.911 27.483C34.3655 27.483 36.3553 25.4932 36.3553 23.0386C36.3553 20.5841 34.3655 18.5943 31.911 18.5943Z" fill="#1B5FC4"/>
<path fill-rule="evenodd" clip-rule="evenodd" d="M31.911 27.483C27.0019 27.483 23.0223 31.4626 23.0223 36.3717C23.0223 41.2808 27.0019 45.2604 31.911 45.2604C36.8201 45.2604 40.7997 41.2808 40.7997 36.3717C40.7997 31.4626 36.8201 27.483 31.911 27.483ZM31.911 31.9273C29.4564 31.9273 27.4666 33.9172 27.4666 36.3717C27.4666 38.8262 29.4564 40.8161 31.911 40.8161C34.3655 40.8161 36.3553 38.8262 36.3553 36.3717C36.3553 33.9172 34.3655 31.9273 31.911 31.9273Z" fill="#1B5FC4"/>
<path d="M9.68921 36.3717C9.68921 31.4626 13.6688 27.483 18.5779 27.483H27.4666V36.3717H23.0223C23.0223 33.9172 21.0325 31.9273 18.5779 31.9273C16.1234 31.9273 14.1336 33.9172 14.1336 36.3717H9.68921Z" fill="#1B5FC4"/>
</svg>
